<mxfile host="app.diagrams.net" modified="2023-05-13T17:37:03.338Z" agent="Mozilla/5.0 (Windows NT 10.0; Win64; x64) AppleWebKit/537.36 (KHTML, like Gecko) Chrome/113.0.0.0 Safari/537.36" version="21.3.0" etag="YRd7o1q8RtrOtXvLor5m" type="github">
  <diagram name="Страница 1" id="Px348R83jVBlfvTC35JF">
    <mxGraphModel>
      <root>
        <mxCell id="0" />
        <mxCell id="1" parent="0" />
      </root>
    </mxGraphModel>
  </diagram>
</mxfile>
